<?xml version="1.0" encoding="UTF-8" standalone="no"?>
<svg
   viewBox="0 0 566.92912 566.92916"
   width="15cm"
   height="15cm"
   version="1.1"
   id="svg3705"
   sodipodi:docname="icon.svg"
   xmlns:inkscape="http://www.inkscape.org/namespaces/inkscape"
   xmlns:sodipodi="http://sodipodi.sourceforge.net/DTD/sodipodi-0.dtd"
   xmlns="http://www.w3.org/2000/svg"
   xmlns:svg="http://www.w3.org/2000/svg">
  <sodipodi:namedview
     id="namedview37"
     pagecolor="#ffffff"
     bordercolor="#000000"
     borderopacity="0.25"
     inkscape:showpageshadow="2"
     inkscape:pageopacity="0.0"
     inkscape:pagecheckerboard="0"
     inkscape:deskcolor="#d1d1d1"
     inkscape:document-units="cm"
     showgrid="false" />
  <desc
     id="desc3633">ロゴ - コピー.dxf - scale = 1.000000, origin = (0.000000, 0.000000), method = manual</desc>
  <defs
     id="defs3647" />
  <circle
     style="fill:#000000;fill-opacity:1;stroke:#858585;"
     id="path27752"
     cx="283.46457"
     cy="283.46457"
     r="283.46457" />
  <path
     style="fill:#ffffff;stroke:#ffffff;stroke-width:0;stroke-dasharray:none;stroke-opacity:1"
     d="m 341.4504,129.60908 c -5.92917,4.54438 -11.47889,9.63507 -17.01268,14.66694 -1.19729,1.57083 1.33223,2.79211 2.01648,4.04916 24.90266,28.92661 50.28147,57.43579 75.00222,86.51506 -28.3964,16.28893 -57.11912,32.00185 -85.6711,48.01559 -1.31818,1.79323 1.95184,3.04274 2.70425,4.48411 41.77817,44.02742 83.47018,88.13767 125.34216,132.07451 1.67199,0.82885 2.63037,-1.6703 3.89668,-2.36439 4.60088,-4.42577 9.36661,-8.71263 13.74646,-13.35009 0.0515,-1.91304 -2.31667,-2.92296 -3.28173,-4.43506 -34.39383,-36.65507 -69.25809,-72.8693 -103.45548,-109.70123 17.57776,-10.51109 35.75187,-20.18378 53.61973,-30.26982 10.25386,-5.75605 20.57041,-11.4076 30.74349,-17.30383 1.03645,-1.63988 -1.5756,-2.81067 -2.23042,-4.13423 -31.34902,-36.09923 -62.74801,-72.1591 -94.42707,-107.96912 -0.26938,-0.15153 -0.66065,-0.41686 -0.99299,-0.2776 z"
     id="path15145" />
  <path
     style="fill:#ffffff;stroke:#ffffff;stroke-width:0;stroke-dasharray:none;stroke-opacity:1"
     d="m 225.12995,129.69678 c -5.75843,5.64362 -10.85889,11.98684 -16.30005,17.95388 -27.14218,30.89664 -54.23246,61.84288 -81.09493,92.98178 -0.54776,1.91653 2.37299,2.13973 3.41549,3.17116 26.95212,15.37111 54.23402,30.22371 81.11761,45.67514 -35.26794,38.02662 -71.3055,75.34241 -106.72203,113.23445 -0.59483,1.74749 1.89772,2.59498 2.68557,3.86416 4.65656,4.35031 9.08734,9.03867 14.0806,12.97589 2.0091,-0.4502 2.97098,-2.88796 4.57979,-4.07881 41.5018,-43.65714 82.98711,-87.3324 124.28075,-131.18574 0.63876,-1.94163 -2.35411,-2.18341 -3.41373,-3.20998 -27.34101,-15.56236 -55.08141,-30.46014 -82.23181,-46.33169 25.44124,-29.96196 51.67654,-59.24583 77.21827,-89.12446 0.46188,-1.7594 -2.00463,-2.49769 -2.84512,-3.72953 -4.59017,-4.07882 -9.12753,-8.22836 -13.88721,-12.10855 -0.30113,-0.15781 -0.5567,-0.21216 -0.8832,-0.0877 z"
     id="path15143" />
  <path
     style="fill:#ffffff;stroke:#ffffff;stroke-width:0;stroke-dasharray:none;stroke-opacity:1"
     d="M 279.6962,33.175058 C 249.93977,32.787883 220.415,39.478948 192.69251,49.972237 126.47007,75.234626 72.591526,130.27703 48.319247,196.82048 c -21.066735,56.80584 -20.63774,121.37686 1.745723,177.73364 23.008414,59.72273 69.98523,109.65564 128.21306,136.22821 31.07449,14.19901 65.04796,22.64038 99.27071,23.14197 22.55603,0.37797 45.17968,-1.76418 67.03811,-7.48138 49.70851,-12.25027 95.05843,-40.57507 128.44752,-79.31517 C 515.68404,398.33496 538.0038,332.3467 533.56215,267.67179 529.52721,200.99107 497.49362,136.54311 446.55144,93.283911 410.12337,61.735517 364.30883,41.656436 316.65264,35.046366 304.44181,33.000304 292.03331,33.199234 279.6962,33.175058 Z m 3.81361,14.983211 c 18.77809,-0.494502 37.43471,1.581802 55.633,6.179778 56.93545,13.569417 108.05768,49.490193 140.43527,98.137943 10.38016,15.78536 18.85983,32.98923 25.60126,50.53046 20.68126,57.00893 18.50146,121.75565 -6.61354,177.01782 -13.46446,30.17427 -33.51292,57.34027 -58.16594,79.36045 -36.60897,33.01061 -84.02101,53.80927 -133.07899,58.53406 -19.07418,1.15438 -38.31881,2.19556 -57.2215,-1.155 C 186.47892,508.13615 127.34084,471.85909 90.656244,419.2316 66.971489,385.55823 52.195913,345.5504 48.609175,304.6126 48.151487,287.75026 47.440488,270.70276 49.446869,253.90437 57.014174,193.7905 88.499351,137.1249 136.01905,99.429437 c 36.3914,-29.183833 81.73482,-47.378752 128.18313,-50.892902 6.40522,-0.345502 12.86825,-0.367861 19.30763,-0.378266 z"
     id="path15121" />
  <path
     d="m 534.22206,283.46457 a 250.7575,250.7575 0 0 0 -501.514989,0 250.7575,250.7575 0 0 0 501.514989,0 z"
     style="fill:none;stroke:#ffffff;stroke-width:1;stroke-linecap:round;stroke-dasharray:none;stroke-opacity:1"
     id="path3649" />
  <path
     d="m 519.3062,283.46457 a 235.84164,235.84164 0 0 0 -471.68327,0 235.84164,235.84164 0 0 0 471.68327,0 z"
     style="fill:none;stroke:#ffffff;stroke-width:1;stroke-linecap:round;stroke-dasharray:none;stroke-opacity:1"
     id="path3651" />
  <path
     style="fill:none;stroke:#ffffff;stroke-width:1;stroke-linecap:round;stroke-dasharray:none;stroke-opacity:1"
     d="m 276.00662,143.36607 v 280.15"
     id="path3653" />
  <path
     style="fill:none;stroke:#ffffff;stroke-width:1;stroke-linecap:round;stroke-dasharray:none;stroke-opacity:1"
     d="m 290.92252,143.36607 v 280.15"
     id="path3655" />
  <path
     style="fill:none;stroke:#ffffff;stroke-width:1;stroke-linecap:round;stroke-dasharray:none;stroke-opacity:1"
     d="m 164.79757,234.91607 78.49325,-89.9"
     id="path3657" />
  <path
     style="fill:none;stroke:#ffffff;stroke-width:1;stroke-linecap:round;stroke-dasharray:none;stroke-opacity:1"
     d="m 225.11157,129.11607 18.17925,15.9"
     id="path3659" />
  <path
     style="fill:none;stroke:#ffffff;stroke-width:1;stroke-linecap:round;stroke-dasharray:none;stroke-opacity:1"
     d="m 127.02457,241.46607 98.087,-112.35"
     id="path3661" />
  <path
     style="fill:none;stroke:#ffffff;stroke-width:1;stroke-linecap:round;stroke-dasharray:none;stroke-opacity:1"
     d="m 212.98157,289.41607 -85.957,-47.95"
     id="path3663" />
  <path
     style="fill:none;stroke:#ffffff;stroke-width:1;stroke-linecap:round;stroke-dasharray:none;stroke-opacity:1"
     d="m 104.99257,403.31607 107.989,-113.9"
     id="path3665" />
  <path
     style="fill:none;stroke:#ffffff;stroke-width:1;stroke-linecap:round;stroke-dasharray:none;stroke-opacity:1"
     d="m 122.50557,419.91607 -17.513,-16.6"
     id="path3667" />
  <path
     style="fill:none;stroke:#ffffff;stroke-width:1;stroke-linecap:round;stroke-dasharray:none;stroke-opacity:1"
     d="m 122.50557,419.91607 129.3687,-136.45"
     id="path3669" />
  <path
     style="fill:none;stroke:#ffffff;stroke-width:1;stroke-linecap:round;stroke-dasharray:none;stroke-opacity:1"
     d="m 251.87427,283.46607 -87.0767,-48.55"
     id="path3671" />
  <path
     style="fill:none;stroke:#ffffff;stroke-width:1;stroke-linecap:round;stroke-dasharray:none;stroke-opacity:1"
     d="m 402.13157,234.91607 -78.49325,-89.9"
     id="path3673" />
  <path
     style="fill:none;stroke:#ffffff;stroke-width:1;stroke-linecap:round;stroke-dasharray:none;stroke-opacity:1"
     d="m 315.05487,283.46607 87.0767,-48.55"
     id="path3675" />
  <path
     style="fill:none;stroke:#ffffff;stroke-width:1;stroke-linecap:round;stroke-dasharray:none;stroke-opacity:1"
     d="m 444.42357,419.91607 -129.3687,-136.45"
     id="path3677" />
  <path
     style="fill:none;stroke:#ffffff;stroke-width:1;stroke-linecap:round;stroke-dasharray:none;stroke-opacity:1"
     d="m 444.42357,419.91607 17.513,-16.6"
     id="path3679" />
  <path
     style="fill:none;stroke:#ffffff;stroke-width:1;stroke-linecap:round;stroke-dasharray:none;stroke-opacity:1"
     d="m 461.93657,403.31607 -107.989,-113.9"
     id="path3681" />
  <path
     style="fill:none;stroke:#ffffff;stroke-width:1;stroke-linecap:round;stroke-dasharray:none;stroke-opacity:1"
     d="m 353.94757,289.41607 85.957,-47.95"
     id="path3683" />
  <path
     style="fill:none;stroke:#ffffff;stroke-width:1;stroke-linecap:round;stroke-dasharray:none;stroke-opacity:1"
     d="m 439.90457,241.46607 -98.087,-112.35"
     id="path3685" />
  <path
     style="fill:none;stroke:#ffffff;stroke-width:1;stroke-linecap:round;stroke-dasharray:none;stroke-opacity:1"
     d="m 341.81757,129.11607 -18.17925,15.9"
     id="path3687" />
  <path
     d="m 283.46457,283.46457 z m 0,0 z"
     style="fill:#000000;stroke:#ffffff;stroke-width:1;stroke-dasharray:none;stroke-opacity:1"
     id="path3691" />
  <path
     d="m 290.9225,143.38957 a 31.5903,31.5903 0 1 0 -14.91586,0"
     style="fill:none;stroke:#ffffff;stroke-width:1;stroke-linecap:round;stroke-dasharray:none;stroke-opacity:1"
     id="path3695" />
  <path
     d="m 276.00664,423.53907 a 31.5903,31.5903 0 1 0 14.91586,0"
     style="fill:none;stroke:#ffffff;stroke-width:1;stroke-linecap:round;stroke-dasharray:none;stroke-opacity:1"
     id="path3697" />
  <path
     style="fill:#ffffff;fill-opacity:1;stroke:#858585;stroke-width:0;stroke-dasharray:none"
     d="m 282.79666,81.031181 c -16.66961,0.05886 -31.36743,15.153672 -30.95596,31.837239 -0.23502,14.16363 10.61045,27.20715 24.15949,30.62516 0,93.31399 0,186.62798 0,279.94197 -15.72972,3.71192 -27.10865,20.71047 -23.54082,36.67797 2.91293,17.00088 21.65734,29.74061 38.45947,24.81098 16.5039,-3.75755 27.83119,-22.17588 23.18436,-38.55596 -2.55119,-11.24174 -12.303,-19.92161 -23.17425,-22.93299 0,-93.31399 0,-186.62798 0,-279.94197 11.74701,-3.19688 21.95726,-13.10855 23.72137,-25.43721 3.28136,-16.9387 -9.85076,-34.658889 -26.92075,-36.719645 -1.63279,-0.232931 -3.2838,-0.336998 -4.93291,-0.305544 z"
     id="path1805" />
</svg>
